<svg xmlns="http://www.w3.org/2000/svg" xmlns:sketch="http://www.bohemiancoding.com/sketch/ns" xmlns:xlink="http://www.w3.org/1999/xlink"  version="1.1" viewBox="0 0 22 22">
<title/>
<defs/>
<g>
<path d="M0 11 C0 4.9 4.9 0 11 0 C17.0751325 0 22 4.9 22 11 C22 17.1 17.1 22 11 22 C4.92486745 22 0 17.1 0 11 Z M21 11 C21 5.5 16.5 1 11 1 C5.47715223 1 1 5.5 1 11 C1 16.5 5.5 21 11 21 C16.5228478 21 21 16.5 21 11 Z M12.1454356 11.4 L8.25634833 15.3 L9.6767767 16.7 L14.9800776 11.4 L9.3232233 5.8 L7.90900974 7.2 L12.1454356 11.4 Z" class="style1"/></g>
</svg>