<svg xmlns="http://www.w3.org/2000/svg" xmlns:sketch="http://www.bohemiancoding.com/sketch/ns" xmlns:xlink="http://www.w3.org/1999/xlink" height="60px" version="1.1" viewBox="0 0 60 60" width="60px">
  <title/>
  <defs/>
  <g>
    <g class="svg">
      <path d="M30 60 C46.5685433 60 60 46.6 60 30 C60 13.4 46.6 0 30 0 C13.4314567 0 0 13.4 0 30 C0 46.6 13.4 60 30 60 Z" class="svg" />
      <path d="M49.608 26.8 L49.608 26.8 C49.6137436 26.9 49.6 27 49.6 27 C49.6153846 28 49.3 28.8 48.8 29.6 C48.3997949 30.3 47.8 30.8 47.1 31.2 C47.1161026 31.6 47.1 32 47.1 32.3 C47.1419487 34.3 46.5 36.2 45.3 37.7 L45.3167179 37.7 L45.3142564 37.7 C43.1706667 40.6 39.9 42.3 36.6 43.2 L36.5544615 43.2 L36.552 43.2 C34.7796923 43.6 33 43.8 31.1 43.8 C28.4010256 43.8 25.7 43.3 23.1 42.3 L23.1390769 42.3 L23.1366154 42.3 C20.5035897 41.2 18 39.5 16.5 36.9 C15.6285128 35.5 15.2 33.9 15.2 32.3 C15.174359 32 15.2 31.6 15.2 31.2 C14.553641 30.8 14 30.3 13.5 29.6 C13.032 28.9 12.7 28.1 12.7 27.2 L12.6923077 27.2 L12.6923077 27.2 L12.6923077 27.2 C12.6931282 25.9 13.2 24.7 14.1 23.9 C14.8892308 23 16 22.4 17.2 22.4 L17.2916923 22.4 C17.4192821 22.4 17.5 22.4 17.7 22.4 C18.2882051 22.4 18.9 22.5 19.5 22.7 L19.4861538 22.7 L19.4894359 22.7 C19.9862564 22.9 20.5 23.2 20.9 23.6 C21.062359 23.5 21.2 23.4 21.4 23.3 C24.0588718 21.7 27.2 21.1 30.2 20.9 C30.2053333 19.4 30.4 17.8 31.1 16.4 C31.7269744 15.3 32.8 14.4 34 14.1 L34.0428718 14.1 L34.0494359 14.1 C34.5277949 14 35 13.9 35.5 13.9 C36.7657436 13.9 38 14.3 39.2 14.7 C39.7294359 13.9 40.5 13.3 41.4 13 L41.3589744 13 L41.3671795 12.9 C41.8808205 12.8 42.4 12.7 43 12.7 C43.542359 12.7 44.1 12.8 44.7 13 L44.6635897 13 C44.6644103 13 44.7 13 44.7 13 C44.6693333 13 44.7 13 44.7 13 C45.4533333 13.4 46.1 13.9 46.6 14.6 C47.0451282 15.3 47.3 16.1 47.3 17 C47.32 17.2 47.3 17.3 47.3 17.5 L47.2912821 17.5 C47.2912821 17.5 47.3 17.5 47.3 17.5 C47.1989744 18.6 46.6 19.6 45.9 20.3 C45.0603077 21 44 21.4 43 21.4 C42.809641 21.4 42.6 21.4 42.5 21.4 C41.4233846 21.3 40.4 20.8 39.7 20 C39.0131282 19.3 38.5 18.2 38.5 17.1 C38.5499487 17.1 38.6 17 38.6 17 C37.5747692 16.5 36.5 16.2 35.5 16.2 C35.3466667 16.2 35.2 16.2 35 16.2 L35.0451282 16.2 C34.2693333 16.3 33.5 16.8 33.2 17.5 L33.1989744 17.5 L33.1989744 17.5 C32.6685128 18.5 32.6 19.7 32.5 21 C35.5202051 21.2 38.5 21.9 41.1 23.4 L41.1390769 23.4 L41.1768205 23.4 C41.2264615 23.5 41.3 23.5 41.4 23.6 C41.5821538 23.4 41.8 23.3 42 23.1 C42.7858462 22.6 43.7 22.3 44.7 22.3 C45.0890256 22.3 45.5 22.4 45.9 22.5 L45.9156923 22.5 L45.9325128 22.5 C45.9382564 22.5 45.9 22.5 45.9 22.5 L45.9476923 22.5 C46.9076923 22.7 47.8 23.3 48.4 24 C49.0832821 24.8 49.5 25.8 49.6 26.8 L49.6088205 26.8 L49.608 26.8 Z M44.8034872 32.4 C44.8034872 31.1 44.3 29.7 43.5 28.6 C41.9969231 26.4 39.6 25 37.1 24.2 L37.0746667 24.2 C36.5946667 24.1 36.1 23.9 35.6 23.8 C34.1597949 23.5 32.7 23.3 31.2 23.3 C29.1542564 23.3 27.1 23.6 25.2 24.2 C22.7197949 25 20.3 26.4 18.8 28.6 L18.761641 28.6 C17.9780513 29.7 17.5 31.1 17.5 32.4 C17.5189744 32.9 17.6 33.4 17.7 33.9 L17.7122051 33.9 C17.993641 35 18.5 36 19.3 36.8 C19.9686154 37.7 20.8 38.4 21.8 39 C21.9645128 39.1 22.2 39.2 22.4 39.3 C25.0471795 40.8 28.1 41.5 31.2 41.5 C31.6884103 41.5 32.2 41.5 32.7 41.4 C35.7930256 41.2 38.9 40.3 41.4 38.4 L41.3741538 38.4 C42.1684103 37.8 42.9 37.1 43.5 36.3 C44.0695385 35.4 44.5 34.5 44.7 33.5 L44.6873846 33.5 L44.6882051 33.5 C44.7657436 33.2 44.8 32.8 44.8 32.4 Z M40.8490256 16.9 C40.8490256 17 40.8 17 40.9 17.1 L40.8539487 17.1 L40.8539487 17.1 C40.8732308 17.6 41.1 18.1 41.5 18.4 C41.8603077 18.8 42.4 19 42.9 19 L42.8629744 19 L42.8695385 19 C42.905641 19 42.9 19 43 19 C43.4841026 19 44 18.8 44.4 18.5 C44.742359 18.1 45 17.6 45 17.1 L45.0123077 17.1 L45.0123077 17.1 C45.0155897 17 45 17 45 16.9 C45.0172308 16.4 44.8 15.9 44.4 15.5 C43.9829744 15.1 43.5 14.9 42.9 14.9 C42.7698462 14.9 42.6 14.9 42.4 15 L42.4363077 15 L42.4313846 15 C42.0034872 15.1 41.6 15.3 41.3 15.7 C41.0246154 16.1 40.8 16.5 40.8 16.9 Z M18.8994872 25 C18.5019487 24.8 18.1 24.7 17.7 24.7 C17.6166154 24.7 17.5 24.7 17.5 24.7 L17.4701538 24.7 L17.4607179 24.7 C16.8773333 24.7 16.3 25 15.8 25.4 C15.4045128 25.8 15.1 26.4 15.1 27 L15.0894359 27 L15.0886154 27 C15.0845128 27 15.1 27.1 15.1 27.1 C15.0828718 27.5 15.2 27.9 15.4 28.2 C15.5349744 28.4 15.7 28.7 15.9 28.9 C16.6180513 27.4 17.7 26.1 18.9 25 Z M47.2289231 27 C47.2281026 26.7 47.2 26.4 47 26.1 L46.9885128 26.1 L46.9868718 26.1 C46.7706667 25.6 46.4 25.3 46 25.1 C45.6116923 24.8 45.1 24.7 44.7 24.7 C44.2172308 24.7 43.8 24.8 43.4 25 C44.6213333 26.1 45.7 27.4 46.4 28.9 C46.6065641 28.7 46.8 28.4 46.9 28.2 C47.1238974 27.8 47.2 27.4 47.2 27 Z M37.5325916 34.8 C37.3454649 34.7 37.1 34.6 36.9 34.6 C36.7150795 34.6 36.5 34.7 36.4 34.8 C34.7382753 35.6 32.8 36.1 31 36.1 C29.5409444 36.1 28.1 35.8 26.9 35.3 L26.8554132 35.3 L26.8489186 35.3 C26.656921 35.2 26.4 35 26.2 34.9 C26.0780867 34.8 26 34.8 25.8 34.7 C25.6721721 34.7 25.5 34.6 25.4 34.6 C25.2171418 34.6 25.1 34.7 24.9 34.7 C24.9252892 34.7 24.9 34.7 24.9 34.7 L24.911894 34.7 C24.6898587 34.8 24.5 34.9 24.4 35.1 C24.2880032 35.3 24.2 35.4 24.2 35.6 C24.2307692 35.8 24.3 36 24.4 36.1 C24.4666056 36.3 24.6 36.4 24.8 36.5 C26.613894 37.6 28.8 38.1 30.9 38.1 C32.8483368 38.1 34.8 37.7 36.5 37 L36.5466249 37 L36.5551491 37 C36.784085 36.8 37.1 36.7 37.4 36.6 C37.5175727 36.5 37.7 36.4 37.8 36.3 C37.8938556 36.2 38 36 38 35.8 L38.0436381 35.8 C38.0659634 35.8 38.1 35.7 38.1 35.6 C38.0769231 35.5 38 35.3 38 35.2 C37.8751835 35 37.7 34.9 37.5 34.8 Z M25.3846154 27.7 C24.1101121 27.7 23.1 28.7 23.1 30 C23.0769231 31.3 24.1 32.3 25.4 32.3 C26.6591187 32.3 27.7 31.3 27.7 30 C27.6923077 28.7 26.7 27.7 25.4 27.7 Z M36.9230769 27.7 C35.6485737 27.7 34.6 28.7 34.6 30 C34.6153846 31.3 35.6 32.3 36.9 32.3 C38.1975802 32.3 39.2 31.3 39.2 30 C39.2307692 28.7 38.2 27.7 36.9 27.7 Z" style="fill: #fff;"/>
    </g>
  </g>
</svg>
