<svg xmlns="http://www.w3.org/2000/svg" xmlns:xlink="http://www.w3.org/1999/xlink" enable-background="new 0 0 32 32" height="32px" version="1.0" viewBox="0 0 32 32" width="32px" xml:space="preserve">
  <style>
	.style0{
		clip-rule:	evenodd;
		fill-rule:	evenodd;
	}
	.style1{
		fill:	#fff;
	}
</style>
  <g>
    <circle cx="16" cy="16" r="16" class="style0"/>
    <path d="M26.013 9.896c-0.737 0.323-1.527 0.538-2.359 0.636c0.85-0.498 1.5-1.289 1.807-2.232 c-0.793 0.462-1.672 0.798-2.608 0.979c-0.748-0.784-1.816-1.275-2.996-1.275c-2.269 0-4.105 1.807-4.105 4 c0 0.3 0 0.6 0.1 0.923c-3.412-0.172-6.436-1.78-8.461-4.222c-0.354 0.597-0.559 1.29-0.559 2 c0 1.4 0.7 2.6 1.8 3.363c-0.672-0.023-1.306-0.204-1.858-0.507c-0.001 0.017-0.001 0.033-0.001 0.1 c0 2 1.4 3.6 3.3 3.963c-0.343 0.09-0.706 0.141-1.082 0.141c-0.264 0-0.52-0.024-0.771-0.071 c0.521 1.6 2 2.8 3.8 2.806c-1.402 1.082-3.174 1.73-5.099 1.73c-0.33 0-0.659-0.019-0.979-0.058 c1.816 1.1 4 1.8 6.3 1.814c7.552 0 11.682-6.156 11.682-11.495c0-0.173-0.006-0.351-0.014-0.521 C24.766 11.4 25.5 10.7 26 9.896z" class="style1"/>
  </g>
</svg>
